<svg width="400" height="400" viewBox="0 0 400 400" fill="none" xmlns="http://www.w3.org/2000/svg">
<path d="M232.721 171.624C222.401 171.624 214.255 180.495 214.255 191.539C214.255 202.582 222.583 211.453 232.721 211.453C243.04 211.453 251.187 202.582 251.187 191.539C251.187 180.495 242.859 171.624 232.721 171.624ZM166.641 171.624C156.322 171.624 148.175 180.495 148.175 191.539C148.175 202.582 156.503 211.453 166.641 211.453C176.961 211.453 185.107 202.582 185.107 191.539C185.288 180.495 176.961 171.624 166.641 171.624Z" fill="#7289DA"/>
<path d="M320.706 21H78.1131C57.6556 21 41 37.6556 41 58.113V300.705C41 321.162 57.6556 337.818 78.1131 337.818H283.412L273.817 304.688L296.99 326.05L318.895 346.146L358 380V58.113C357.819 37.6556 341.163 21 320.706 21ZM250.825 255.445C250.825 255.445 244.307 247.661 238.876 240.962C262.592 234.264 271.644 219.6 271.644 219.6C264.222 224.488 257.161 227.927 250.825 230.281C241.773 234.083 233.083 236.436 224.574 238.066C207.194 241.324 191.263 240.419 177.685 237.885C167.366 235.893 158.495 233.178 151.072 230.1C146.908 228.471 142.382 226.479 137.856 223.945C137.313 223.582 136.77 223.401 136.227 223.039C135.865 222.858 135.684 222.677 135.503 222.677C132.244 220.867 130.433 219.6 130.433 219.6C130.433 219.6 139.123 233.902 162.115 240.781C156.684 247.661 149.986 255.626 149.986 255.626C109.976 254.359 94.7687 228.289 94.7687 228.289C94.7687 170.538 120.838 123.649 120.838 123.649C146.908 104.278 171.529 104.821 171.529 104.821L173.34 106.993C140.753 116.226 125.907 130.528 125.907 130.528C125.907 130.528 129.89 128.356 136.589 125.459C155.96 116.951 171.348 114.778 177.685 114.054C178.771 113.873 179.676 113.692 180.762 113.692C191.806 112.244 204.298 111.881 217.332 113.33C234.531 115.321 252.997 120.39 271.825 130.528C271.825 130.528 257.523 116.951 226.746 107.718L229.281 104.821C229.281 104.821 254.083 104.278 279.972 123.649C279.972 123.649 306.042 170.538 306.042 228.289C306.042 228.108 290.834 254.178 250.825 255.445Z" fill="#7289DA"/>
</svg>
