<svg width="400" height="400" viewBox="0 0 400 400" fill="none" xmlns="http://www.w3.org/2000/svg">
<path d="M199.999 24C102.799 24 24 102.799 24 200.001C24 297.207 102.799 376 199.999 376C297.209 376 376 297.207 376 200.001C376 102.806 297.209 24.0084 199.997 24.0084L199.999 24ZM280.711 277.844C277.558 283.014 270.791 284.654 265.621 281.48C224.298 256.239 172.278 250.522 111.015 264.519C105.111 265.864 99.2267 262.165 97.8816 256.26C96.5302 250.354 100.214 244.469 106.133 243.124C173.176 227.807 230.683 234.402 277.075 262.754C282.245 265.927 283.884 272.674 280.711 277.844ZM302.253 229.921C298.281 236.377 289.832 238.416 283.38 234.444C236.072 205.365 163.958 196.943 108.001 213.929C100.744 216.121 93.0793 212.031 90.8768 204.787C88.6911 197.529 92.783 189.879 100.027 187.672C163.945 168.278 243.407 177.673 297.734 211.058C304.186 215.03 306.225 223.479 302.253 229.923V229.921ZM304.102 180.018C247.379 146.326 153.792 143.228 99.6344 159.665C90.9377 162.303 81.7409 157.393 79.1054 148.696C76.4699 139.995 81.3752 130.804 90.0782 128.161C152.247 109.287 255.596 112.934 320.903 151.704C328.742 156.347 331.306 166.449 326.662 174.261C322.038 182.084 311.908 184.663 304.111 180.018H304.102Z" fill="#1ED760"/>
</svg>
