<svg width="400" height="400" viewBox="0 0 400 400" fill="none" xmlns="http://www.w3.org/2000/svg">
<path d="M131.264 351.986C271.974 351.986 348.937 235.408 348.937 134.312C348.937 131.001 348.937 127.705 348.713 124.423C363.686 113.594 376.61 100.184 386.881 84.8235C372.919 91.0103 358.107 95.0677 342.941 96.8601C358.911 87.2991 370.864 72.2614 376.575 54.5455C361.558 63.4567 345.128 69.7369 327.996 73.115C316.461 60.8499 301.206 52.7283 284.591 50.007C267.975 47.2856 250.926 50.1162 236.081 58.0607C221.237 66.0053 209.424 78.6208 202.472 93.9551C195.52 109.289 193.815 126.488 197.622 142.889C167.206 141.364 137.451 133.46 110.288 119.689C83.1245 105.919 59.161 86.5901 39.9525 62.9577C30.1695 79.7994 27.1732 99.7367 31.5736 118.71C35.974 137.683 47.4403 154.266 63.638 165.082C51.4633 164.722 39.554 161.437 28.9153 155.507C28.9153 155.82 28.9153 156.148 28.9153 156.476C28.9201 174.139 35.0344 191.257 46.2212 204.926C57.4079 218.594 72.9783 227.973 90.2915 231.47C79.0286 234.542 67.2114 234.991 55.7478 232.783C60.6364 247.984 70.1539 261.277 82.9692 270.803C95.7845 280.329 111.257 285.611 127.222 285.911C100.132 307.201 66.6666 318.759 32.2115 318.724C26.1247 318.713 20.0437 318.344 14 317.621C48.9858 340.072 89.6936 351.981 131.264 351.926" fill="#1DA1F2"/>
</svg>
